/* XPM */
static char *eb96f7cb020f4b85c31a813304f8e23c44XTkqFvq1fNKxZE[] = {
/* columns rows colors chars-per-pixel */
"32 32 10 1 ",
"  c None",
". c #0C9532",
"X c #0C9532",
"o c #0C9532",
"O c #0C9532",
"+ c #0C9532",
"@ c #0C9532",
"# c #0C9532",
"$ c #0C9532",
"% c #0C9532",
/* pixels */
"   ............................ ",
"   .OOOOOOOOOOOOOOOOOOOOOOOOOO. ",
"   .OOOOOOOOOOOOOOOOOOOOOOOOOO. ",
"    .OO+OOO++OOO++OOO++OOO+OO.  ",
"    .@@@@@@@@@@@@@@@@@@@@@@@@.  ",
"    ...%%%%%%++O++O++%%%%%%...  ",
"      .% ####$$#####$#### %.    ",
"      .% %#$##########$$# %.    ",
"      .% ####$$#####$#### %.    ",
"      .% ####$$#####$#### %.    ",
"      .% %#$##########$$# %.    ",
"      .% %#$##########$$# %.    ",
"      .% ####$$#####$#### %.    ",
"      .% %#$##########$$# %.    ",
"      .% ##%#oooooo###### %.    ",
"      .% #%######$####$$# %.    ",
"      .% %#$##########$$# %.    ",
"      .% ####$$########## %.    ",
"      .% ####$$#####$#### %.    ",
"      .% ################ %.    ",
"      .% #######$#######% %.    ",
"      .% #######$$#####%# %.    ",
"      .% %#$##########$$# %.    ",
"     ..%%%%%%%%%%%%%%%%%%%%..   ",
"     .@@@@@+@%%%%%%%%@@@+@@@.   ",
"    ..++++++@@+@@@@@@@++++++..  ",
"    .@@@@+@@@@+++++++++@@@@@@.  ",
"    .@@@@+@@@@@@+@@@@@@@@@@@@.  ",
"    .OO++OO++OOOOOOO++OOO++OO.  ",
"   .OOOOOOOOOOOOOOOOOOOOOOOOOO. ",
"   ............................ ",
"   .OOO.OOO.OOO....OOO.OOO.OOO. "
};