/* XPM */
static char *d74ce3c6a28447b1cc2125135e2f805cGVsDOOrXsnQku4Dp[] = {
/* columns rows colors chars-per-pixel */
"32 32 5 1 ",
"  c None",
". c #4A2532",
"X c #4A2532",
"o c #4A2532",
"O c #4A2532",
/* pixels */
"                                ",
"                                ",
"                                ",
"                                ",
"                                ",
"                                ",
"                                ",
"                                ",
"                                ",
"            ooooooo             ",
"         oooXXoXXXX...          ",
"        oXoXo.XXXXXXXX.         ",
"       oXoXooX.XXXXXXXX.        ",
"      oXoXX.XX.XXXXXXXXX.       ",
"     oXoXXoX..XXXXXXXXXXX.      ",
"    oXoXXXXXXXXXXXXXXXXXXX.     ",
"   oXoXXoXXXoXXXXXXoo.XXXXX.    ",
"   ooXXXXXXXXXXXXXoXXX.XXXX.    ",
"   oXXoXXXoXXXXXXXoXXX.XXXX.    ",
"  OXXXXXXXXXXXXXXX.XXX.XXXXX.   ",
"  OXoXXXoXXXXXXXXXX...XXXXXX.   ",
"  .XXXXXo.XXXXXXXXXXXXXXXXXX.   ",
"  .XXXXoXX.XXXXXXXXXXXXXXXXX.   ",
"  .XXXX.X..X.X.X.X.X.XXXXXXX.   ",
"  .XX.X...X.X.X.Xo..X.X.X.XX.   ",
"  .X.X.X.X.X.X.XoXX..X.X.X.X.   ",
"   .X.X.X.X.X.X..XX.X.X.X.X.    ",
"   ..X.X.X.X.X.X...X.X.X.X..    ",
"    ..X.X.X.X.X.X.X.X.X.X..     ",
"     ....X.X.X.X.X.X.X....      ",
"         .............          ",
"                                "
};